            <svg id="Group_50" data-name="Group 50" xmlns="http://www.w3.org/2000/svg" width="452.043" height="247.863" viewBox="0 0 452.043 247.863">
              <g id="Group_7" data-name="Group 7" transform="translate(0 99.655)">
                <g id="Group_5" data-name="Group 5">
                  <path id="Path_3" data-name="Path 3" d="M104.53,161.235V184.19a31.059,31.059,0,0,1,58.63,0V161.235a44.245,44.245,0,0,0-58.63,0Z" transform="translate(-32.05 -150.13)" fill="#44fff5"/>
                  <path id="Path_5" data-name="Path 5" d="M72.549,152.118l-25.741,0v83.764H60.069V212.766H72.557c1.4,0,13.937-.255,22.76-9.047,5.374-5.353,8.1-12.512,8.1-21.277s-2.725-15.926-8.1-21.279C86.874,152.752,74.941,152.153,72.549,152.118Zm0,47.385H60.069V165.379H72.554c.083,0,8.318.113,13.4,5.178,2.785,2.775,4.2,6.772,4.2,11.884C90.155,198.992,74.346,199.5,72.549,199.5Z" transform="translate(-46.808 -149.623)" fill="#7b9fa1"/>
                  <path id="Path_4" data-name="Path 4" d="M133.845,214.478a31.136,31.136,0,0,1-29.315-20.8v22.954a44.245,44.245,0,0,0,58.63,0V193.683A31.135,31.135,0,0,1,133.845,214.478Z" transform="translate(-32.05 -138.995)" fill="#44fff5"/>
                </g>
              </g>
            </svg>
